# xmcd CD database file
#
# Track frame offsets:
#	150
#	13423
#	28908
#	40732
#	55086
#	66789
#	80739
#	92230
#	106590
#	121572
#	134057
#	149786
#	165846
#	180188
#	193966
#	205760
#	217456
#	229435
#	242496
#	257621
#	269966
#	284476
#
# Disc length: 3991 seconds
#
# Revision: 2
# Processed by: cddbd v1.5.2PL0 Copyright (c) Steve Scherf et al.
# Submitted via: CDex 1.51
#
DISCID=550f9516
DTITLE=Sarah Vaughan - The Complete Columbia Recordings CD2
DYEAR=2006
DGENRE=Jazz
TTITLE0=Mean To Me
TTITLE1=Come Rain Or Come Shine
TTITLE2=Nice Work If You Can Get It
TTITLE3=East Of The Sun
TTITLE4=I Love The Guy
TTITLE5=Thinking Of You
TTITLE6=Perdido
TTITLE7=Whippa-Whippa-Woo
TTITLE8=I'll Know
TTITLE9=De Gas Pipe, She's Leakin' Joe
TTITLE10=Ave Maria
TTITLE11=City Called Heaven
TTITLE12=Deep Purple
TTITLE13=These Things I Offer You
TTITLE14=Vanity
TTITLE15=My Reverie
TTITLE16=Out Of Breath
TTITLE17=After Hours
TTITLE18=Just A Moment More
TTITLE19=Pinky
TTITLE20=I Ran All The Way Home
TTITLE21=A Miracle Happened
EXTD=YEAR: 2006
EXTT0=
EXTT1=
EXTT2=
EXTT3=
EXTT4=
EXTT5=
EXTT6=
EXTT7=
EXTT8=
EXTT9=
EXTT10=
EXTT11=
EXTT12=
EXTT13=
EXTT14=
EXTT15=
EXTT16=
EXTT17=
EXTT18=
EXTT19=
EXTT20=
EXTT21=
PLAYORDER=
